<?xml version="1.0" standalone="no"?>
<!DOCTYPE svg PUBLIC "-//W3C//DTD SVG 20010904//EN"
 "http://www.w3.org/TR/2001/REC-SVG-20010904/DTD/svg10.dtd">
<svg version="1.0" xmlns="http://www.w3.org/2000/svg"
 width="980.000000pt" height="980.000000pt" viewBox="0 0 980.000000 980.000000"
 preserveAspectRatio="xMidYMid meet">

<g transform="translate(0.000000,980.000000) scale(0.100000,-0.100000)"
fill="#000000" stroke="none">
<path d="M4780 6703 c-47 -10 -145 -55 -192 -89 -45 -34 -48 -34 -93 -23 -27
7 -86 10 -146 7 -92 -5 -106 -8 -183 -46 -93 -47 -172 -122 -216 -208 -24 -46
-29 -49 -80 -59 -124 -25 -245 -106 -311 -208 -46 -71 -79 -170 -79 -237 0
-46 -2 -50 -50 -85 -180 -132 -251 -353 -180 -559 l19 -57 -35 -63 c-102 -185
-71 -422 73 -571 l38 -39 -3 -92 c-6 -147 34 -255 133 -363 l56 -60 -53 -75
c-29 -41 -100 -139 -157 -218 -58 -78 -160 -219 -228 -312 -121 -167 -138
-201 -109 -225 8 -7 161 -32 341 -55 179 -24 330 -47 334 -52 11 -12 89 -112
256 -327 76 -99 145 -181 152 -184 43 -16 55 7 217 408 88 217 161 396 163
398 2 3 27 -3 56 -12 121 -37 237 -30 351 22 56 25 66 27 87 15 91 -51 242
-68 353 -39 33 9 60 14 61 13 2 -4 187 -460 258 -637 62 -154 82 -183 119
-168 8 2 104 120 213 261 168 216 204 257 230 261 16 3 165 23 329 45 164 22
305 45 312 51 8 6 14 21 14 33 0 19 -138 215 -491 698 l-78 107 63 63 c109
109 153 231 143 389 -6 86 -5 87 24 115 106 101 158 280 126 430 -15 68 -66
186 -86 198 -6 4 -2 28 9 61 72 208 -6 445 -184 563 -42 28 -56 55 -56 107 0
49 -43 159 -86 222 -67 98 -200 181 -316 198 -44 7 -49 11 -77 59 -34 60 -106
136 -165 174 -104 65 -243 88 -377 61 -53 -11 -55 -10 -107 24 -87 59 -154 80
-267 83 -55 1 -111 0 -125 -3z m170 -94 c71 -11 143 -44 198 -89 42 -35 54
-36 167 -14 69 14 94 15 142 5 125 -25 234 -105 289 -212 34 -67 43 -74 121
-87 187 -31 323 -175 340 -358 7 -80 25 -118 64 -135 16 -6 51 -33 79 -60 111
-106 147 -266 97 -419 -27 -82 -24 -103 22 -168 11 -16 29 -57 41 -92 44 -128
11 -271 -85 -379 -30 -34 -57 -71 -60 -84 -3 -12 -2 -50 3 -84 18 -131 -23
-254 -113 -343 -24 -24 -81 -61 -127 -84 l-83 -41 -25 -75 c-15 -41 -34 -90
-44 -109 -29 -55 -103 -121 -173 -153 -54 -26 -83 -32 -170 -38 l-104 -6 -59
-65 c-132 -147 -305 -182 -485 -97 l-67 31 -52 -23 c-121 -54 -157 -62 -238
-57 -110 7 -184 44 -275 135 l-71 72 -88 -1 c-130 -1 -212 31 -298 117 -41 42
-89 128 -101 182 -7 35 -50 92 -68 92 -30 0 -123 54 -171 99 -92 88 -138 221
-116 340 13 72 6 91 -56 156 -26 27 -61 79 -78 115 -28 59 -31 74 -31 162 0
95 0 97 48 190 26 51 47 100 47 109 0 9 -10 38 -22 65 -19 40 -23 67 -23 149
0 93 2 105 32 166 32 64 87 124 176 192 31 23 37 34 37 66 0 210 130 372 334
415 36 7 73 19 81 26 8 6 30 40 49 73 87 155 252 238 408 206 108 -22 140 -18
184 20 48 43 125 78 194 90 30 5 57 9 60 10 3 0 34 -4 70 -10z m1381 -2911
c85 -117 193 -267 242 -333 112 -153 121 -165 116 -170 -2 -2 -128 -20 -279
-40 -151 -19 -285 -38 -297 -40 -14 -3 -85 -87 -198 -233 -97 -125 -179 -228
-183 -229 -4 -2 -25 41 -46 95 -21 53 -85 211 -142 350 l-103 252 70 70 c66
67 72 70 117 70 132 1 266 56 358 149 56 56 118 165 130 226 5 30 38 59 55 49
4 -2 76 -99 160 -216z m-2668 188 c26 -10 36 -23 46 -57 23 -79 73 -158 133
-215 98 -90 209 -134 338 -134 l65 0 59 -60 59 -59 -144 -356 c-79 -195 -147
-354 -150 -352 -4 1 -86 104 -183 229 -113 146 -185 230 -199 233 -12 2 -146
21 -297 41 -151 20 -277 38 -279 40 -5 4 -6 3 199 284 94 129 201 277 238 328
36 50 70 92 74 92 5 0 23 -6 41 -14z"/>
<path d="M4685 6205 c-540 -101 -947 -539 -1006 -1082 -49 -456 163 -900 554
-1160 90 -60 244 -127 365 -159 129 -34 372 -44 507 -21 308 54 593 229 783
482 71 94 165 288 197 405 88 327 39 672 -137 962 -27 46 -73 110 -101 143
-29 33 -56 66 -62 73 -5 7 -44 41 -85 76 -161 136 -315 215 -520 267 -113 28
-378 35 -495 14z m330 -85 c262 -30 500 -143 679 -323 45 -45 103 -112 129
-148 66 -93 143 -259 174 -376 24 -89 27 -115 27 -278 0 -162 -3 -189 -26
-277 -28 -101 -60 -180 -117 -286 l-34 -62 -51 48 c-61 57 -121 87 -361 177
-244 91 -235 86 -235 143 0 24 13 50 52 100 97 127 146 262 155 432 9 176 -41
322 -147 430 -70 72 -127 105 -225 130 -99 25 -171 25 -271 0 -142 -37 -248
-123 -313 -256 -49 -100 -64 -181 -58 -304 10 -168 59 -306 158 -436 35 -47
49 -74 49 -97 0 -56 6 -52 -230 -140 -241 -90 -304 -121 -361 -174 -38 -36
-52 -43 -63 -34 -23 20 -105 197 -130 284 -77 265 -56 552 58 792 63 133 127
226 226 325 243 245 582 367 915 330z m68 -408 c81 -40 138 -102 185 -199 32
-69 36 -85 40 -182 5 -129 -12 -212 -68 -326 -21 -44 -62 -107 -91 -140 l-51
-59 6 -70 c4 -38 12 -81 19 -95 15 -32 74 -61 282 -139 88 -33 190 -73 226
-90 64 -29 149 -99 149 -124 0 -20 -172 -180 -245 -229 -200 -133 -391 -191
-630 -192 -263 -1 -488 74 -693 231 -74 56 -192 175 -192 192 0 6 18 28 41 51
48 48 117 81 365 173 100 37 195 76 213 87 38 23 49 49 57 137 l6 68 -51 59
c-61 72 -125 196 -146 285 -18 80 -19 218 -1 285 30 113 100 213 184 263 71
41 126 52 234 48 85 -2 105 -7 161 -34z"/>
</g>
</svg>
